<?xml version="1.0" encoding="UTF-8" standalone="no"?>
<!DOCTYPE svg PUBLIC "-//W3C//DTD SVG 1.1//EN" "http://www.w3.org/Graphics/SVG/1.1/DTD/svg11.dtd">
<svg width="100%" height="100%" viewBox="0 0 110 135" version="1.1" xmlns="http://www.w3.org/2000/svg" xmlns:xlink="http://www.w3.org/1999/xlink" xml:space="preserve" xmlns:serif="http://www.serif.com/" style="fill-rule:evenodd;clip-rule:evenodd;stroke-linejoin:round;stroke-miterlimit:2;">
    <g transform="matrix(1,0,0,1,5,10)">
        <path d="M68.457,42.938L68.457,23.536C68.457,13.36 60.18,5.079 50,5.079C39.824,5.079 31.543,13.356 31.543,23.536L31.543,42.938C29.227,43.567 27.52,45.684 27.52,48.196C27.52,51.2 29.965,53.645 32.969,53.645L35.559,53.645L35.559,72.954C35.559,73.684 36.105,74.286 36.812,74.368L36.812,91.11C36.812,93.212 38.523,94.919 40.621,94.919C42.723,94.919 44.43,93.212 44.43,91.11L44.43,74.368C45.137,74.282 45.684,73.685 45.684,72.954L45.684,53.645L54.305,53.645L54.305,72.954C54.305,73.684 54.852,74.286 55.559,74.368L55.559,91.11C55.559,93.212 57.269,94.919 59.367,94.919C61.469,94.919 63.176,93.212 63.176,91.11L63.176,74.368C63.883,74.282 64.43,73.685 64.43,72.954L64.43,53.645L67.019,53.645C70.023,53.645 72.469,51.2 72.469,48.196C72.469,45.684 70.762,43.567 68.445,42.938L68.457,42.938ZM50,7.93C58.605,7.93 65.605,14.93 65.605,23.535L65.605,42.746L61.394,42.746L61.394,32.43C61.394,30.106 59.503,28.219 57.183,28.219L55.773,28.219C55.132,25.625 52.789,23.7 50,23.7C47.211,23.7 44.867,25.629 44.226,28.219L42.816,28.219C40.492,28.219 38.605,30.11 38.605,32.43L38.605,42.746L34.394,42.746L34.394,23.535C34.394,14.929 41.394,7.93 49.999,7.93L50,7.93ZM44.227,31.071C44.867,33.665 47.211,35.591 50,35.591C52.789,35.591 55.133,33.661 55.773,31.071L57.184,31.071C57.934,31.071 58.547,31.68 58.547,32.434L58.547,42.75L41.457,42.75L41.457,32.434C41.457,31.684 42.066,31.071 42.82,31.071L44.23,31.071L44.227,31.071ZM46.902,29.649C46.902,27.942 48.289,26.555 50,26.555C51.707,26.555 53.098,27.942 53.098,29.649C53.098,31.356 51.711,32.743 50,32.743C48.293,32.743 46.902,31.356 46.902,29.649ZM42.836,71.54C42.129,71.626 41.582,72.224 41.582,72.954L41.582,91.11C41.582,91.638 41.152,92.067 40.625,92.067C40.098,92.067 39.668,91.638 39.668,91.11L39.668,72.954C39.668,72.224 39.121,71.622 38.414,71.54L38.414,53.645L42.84,53.645L42.84,71.54L42.836,71.54ZM61.59,71.54C60.883,71.626 60.336,72.224 60.336,72.954L60.336,91.11C60.336,91.638 59.906,92.067 59.379,92.067C58.852,92.067 58.422,91.638 58.422,91.11L58.422,72.954C58.422,72.224 57.875,71.622 57.168,71.54L57.168,53.645L61.594,53.645L61.594,71.54L61.59,71.54ZM67.031,50.794L32.969,50.794C31.536,50.794 30.372,49.63 30.372,48.196C30.372,46.763 31.536,45.599 32.969,45.599L67.028,45.599C68.462,45.599 69.626,46.763 69.626,48.196C69.626,49.63 68.462,50.794 67.028,50.794L67.031,50.794Z" style="fill:rgb(255,0,1);fill-rule:nonzero;"/>
    </g>
    <g transform="matrix(1,0,0,1,5,127.5)">
        <text x="0px" y="0px" style="font-family:'Helvetica-Bold', 'Helvetica';font-weight:700;font-size:5px;">Created by krisna arga muria</text>
    </g>
    <g transform="matrix(1,0,0,1,5,132.5)">
        <text x="0px" y="0px" style="font-family:'Helvetica-Bold', 'Helvetica';font-weight:700;font-size:5px;">from Noun Project</text>
    </g>
</svg>
