<?xml version="1.0" encoding="UTF-8" standalone="no"?>
<!DOCTYPE svg PUBLIC "-//W3C//DTD SVG 1.1//EN" "http://www.w3.org/Graphics/SVG/1.1/DTD/svg11.dtd">
<svg width="100%" height="100%" viewBox="0 0 110 135" version="1.1" xmlns="http://www.w3.org/2000/svg" xmlns:xlink="http://www.w3.org/1999/xlink" xml:space="preserve" xmlns:serif="http://www.serif.com/" style="fill-rule:evenodd;clip-rule:evenodd;stroke-linejoin:round;stroke-miterlimit:2;">
    <g transform="matrix(1,0,0,1,5,10)">
        <path d="M69.547,48.203C69.547,49.629 68.387,50.789 66.961,50.789L33.039,50.789C31.613,50.789 30.453,49.629 30.453,48.203C30.453,46.777 31.613,45.617 33.039,45.617L66.957,45.617C68.383,45.617 69.543,46.777 69.543,48.203L69.547,48.203ZM38.652,32.508C38.652,30.196 40.535,28.313 42.847,28.313L44.254,28.313C44.89,25.731 47.226,23.809 50,23.809C52.777,23.809 55.109,25.727 55.746,28.313L57.152,28.313C59.464,28.313 61.347,30.196 61.347,32.508L61.347,42.781L65.539,42.781L65.539,23.648C65.539,15.078 58.566,8.109 50,8.109C41.429,8.109 34.461,15.082 34.461,23.648L34.461,42.781L38.652,42.781L38.652,32.508ZM57.132,71.449C57.835,71.535 58.382,72.133 58.382,72.859L58.382,90.941C58.382,91.469 58.812,91.894 59.339,91.894C59.866,91.894 60.292,91.465 60.292,90.941L60.292,72.859C60.292,72.133 60.839,71.535 61.542,71.449L61.542,53.629L57.132,53.629L57.132,71.449ZM44.257,31.148L42.847,31.148C42.101,31.148 41.491,31.757 41.491,32.504L41.491,42.777L58.511,42.777L58.511,32.504C58.511,31.757 57.902,31.148 57.156,31.148L55.75,31.148C55.113,33.73 52.777,35.652 50.004,35.652C47.226,35.652 44.894,33.734 44.257,31.148ZM38.46,71.449C39.163,71.535 39.71,72.133 39.71,72.859L39.71,90.941C39.71,91.469 40.14,91.894 40.667,91.894C41.194,91.894 41.62,91.465 41.62,90.941L41.62,72.859C41.62,72.133 42.167,71.535 42.87,71.449L42.87,53.629L38.46,53.629L38.46,71.449ZM53.081,29.73C53.081,28.031 51.698,26.648 49.999,26.648C48.3,26.648 46.917,28.031 46.917,29.73C46.917,31.429 48.3,32.812 49.999,32.812C51.698,32.812 53.081,31.429 53.081,29.73Z" style="fill:rgb(255,0,2);fill-rule:nonzero;"/>
    </g>
    <g transform="matrix(1,0,0,1,5,127.5)">
        <text x="0px" y="0px" style="font-family:'Helvetica-Bold', 'Helvetica';font-weight:700;font-size:5px;">Created by krisna arga muria</text>
    </g>
    <g transform="matrix(1,0,0,1,5,132.5)">
        <text x="0px" y="0px" style="font-family:'Helvetica-Bold', 'Helvetica';font-weight:700;font-size:5px;">from Noun Project</text>
    </g>
</svg>
