<svg xmlns="http://www.w3.org/2000/svg" version="1.1" viewBox="-5.0 -10.0 110.0 135.0">
 <path d="m69.547 48.203c0 1.4258-1.1602 2.5859-2.5859 2.5859h-33.922c-1.4258 0-2.5859-1.1602-2.5859-2.5859s1.1602-2.5859 2.5859-2.5859h33.918c1.4258 0 2.5859 1.1602 2.5859 2.5859zm-30.895-15.695c0-2.3125 1.8828-4.1953 4.1953-4.1953h1.4062c0.63672-2.582 2.9727-4.5039 5.7461-4.5039 2.7773 0 5.1094 1.918 5.7461 4.5039h1.4062c2.3125 0 4.1953 1.8828 4.1953 4.1953v10.273h4.1914v-19.133c0-8.5703-6.9727-15.539-15.539-15.539-8.5703 0-15.539 6.9727-15.539 15.539v19.133h4.1914zm18.48 38.941c0.70313 0.085937 1.25 0.68359 1.25 1.4102v18.082c0 0.52734 0.42969 0.95312 0.95703 0.95312s0.95312-0.42969 0.95312-0.95312v-18.082c0-0.72656 0.54688-1.3242 1.25-1.4102v-17.82h-4.4102zm-12.879-40.301h-1.4062c-0.74609 0-1.3555 0.60937-1.3555 1.3555v10.273h17.02v-10.273c0-0.74609-0.60938-1.3555-1.3555-1.3555h-1.4062c-0.63672 2.582-2.9727 4.5039-5.7461 4.5039-2.7773 0-5.1094-1.918-5.7461-4.5039zm-5.793 40.301c0.70312 0.085937 1.25 0.68359 1.25 1.4102v18.082c0 0.52734 0.42969 0.95312 0.95703 0.95312 0.52734 0 0.95312-0.42969 0.95312-0.95312v-18.082c0-0.72656 0.54688-1.3242 1.25-1.4102v-17.82h-4.4102zm14.621-41.719c0-1.6992-1.3828-3.082-3.082-3.082s-3.082 1.3828-3.082 3.082 1.3828 3.082 3.082 3.082 3.082-1.3828 3.082-3.082z"/>
<text x="0.0" y="117.5" font-size="5.0" font-weight="bold" font-family="Arbeit Regular, Helvetica, Arial-Unicode, Arial, Sans-serif" fill="#000000">Created by krisna arga muria</text><text x="0.0" y="122.5" font-size="5.0" font-weight="bold" font-family="Arbeit Regular, Helvetica, Arial-Unicode, Arial, Sans-serif" fill="#000000">from Noun Project</text></svg>