<svg xmlns="http://www.w3.org/2000/svg" version="1.1" viewBox="-5.0 -10.0 110.0 135.0">
 <path d="m68.457 42.938v-19.402c0-10.176-8.2773-18.457-18.457-18.457-10.176 0-18.457 8.2773-18.457 18.457v19.402c-2.3164 0.62891-4.0234 2.7461-4.0234 5.2578 0 3.0039 2.4453 5.4492 5.4492 5.4492h2.5898v19.309c0 0.73047 0.54688 1.332 1.2539 1.4141v16.742c0 2.1016 1.7109 3.8086 3.8086 3.8086 2.1016 0 3.8086-1.707 3.8086-3.8086v-16.742c0.70703-0.085938 1.2539-0.68359 1.2539-1.4141v-19.309h8.6211v19.309c0 0.73047 0.54687 1.332 1.2539 1.4141v16.742c0 2.1016 1.7109 3.8086 3.8086 3.8086 2.1016 0 3.8086-1.707 3.8086-3.8086v-16.742c0.70703-0.085938 1.2539-0.68359 1.2539-1.4141v-19.309h2.5898c3.0039 0 5.4492-2.4453 5.4492-5.4492 0-2.5117-1.707-4.6289-4.0234-5.2578zm-18.457-35.008c8.6055 0 15.605 7 15.605 15.605v19.211h-4.2109v-10.316c0-2.3242-1.8906-4.2109-4.2109-4.2109h-1.4102c-0.64063-2.5938-2.9844-4.5195-5.7734-4.5195s-5.1328 1.9297-5.7734 4.5195h-1.4102c-2.3242 0-4.2109 1.8906-4.2109 4.2109v10.316h-4.2109v-19.211c0-8.6055 7-15.605 15.605-15.605zm-5.7734 23.141c0.64063 2.5938 2.9844 4.5195 5.7734 4.5195s5.1328-1.9297 5.7734-4.5195h1.4102c0.75 0 1.3633 0.60938 1.3633 1.3633v10.316h-17.09v-10.316c0-0.75 0.60938-1.3633 1.3633-1.3633h1.4102zm2.6758-1.4219c0-1.707 1.3867-3.0938 3.0977-3.0938 1.707 0 3.0977 1.3867 3.0977 3.0938 0 1.707-1.3867 3.0938-3.0977 3.0938-1.707 0-3.0977-1.3867-3.0977-3.0938zm-4.0664 41.891c-0.70703 0.085938-1.2539 0.68359-1.2539 1.4141v18.156c0 0.52734-0.42969 0.95703-0.95703 0.95703s-0.95703-0.42969-0.95703-0.95703v-18.156c0-0.73047-0.54688-1.332-1.2539-1.4141v-17.895h4.4258v17.895zm18.754 0c-0.70703 0.085938-1.2539 0.68359-1.2539 1.4141v18.156c0 0.52734-0.42969 0.95703-0.95703 0.95703s-0.95703-0.42969-0.95703-0.95703v-18.156c0-0.73047-0.54688-1.332-1.2539-1.4141v-17.895h4.4258v17.895zm5.4414-20.746h-34.062c-1.4336 0-2.5977-1.1641-2.5977-2.5977 0-1.4336 1.1641-2.5977 2.5977-2.5977h34.059c1.4336 0 2.5977 1.1641 2.5977 2.5977 0 1.4336-1.1641 2.5977-2.5977 2.5977z"/>
<text x="0.0" y="117.5" font-size="5.0" font-weight="bold" font-family="Arbeit Regular, Helvetica, Arial-Unicode, Arial, Sans-serif" fill="#000000">Created by krisna arga muria</text><text x="0.0" y="122.5" font-size="5.0" font-weight="bold" font-family="Arbeit Regular, Helvetica, Arial-Unicode, Arial, Sans-serif" fill="#000000">from Noun Project</text></svg>